<svg xmlns="http://www.w3.org/2000/svg" xmlns:xlink="http://www.w3.org/1999/xlink" viewBox="0 0 250.46 69.45"><defs><style>.cls-1{isolation:isolate;}.cls-2{fill:#059dd9;}.cls-3{opacity:0.75;fill:url(#Degradado_sin_nombre_18);}.cls-3,.cls-4,.cls-6{mix-blend-mode:multiply;}.cls-4{fill:url(#radial-gradient);}.cls-5{fill:url(#Degradado_sin_nombre_14);}.cls-6{fill:url(#Degradado_sin_nombre_15);}.cls-7{fill:#fff;}</style><radialGradient id="Degradado_sin_nombre_18" cx="125.5" cy="71.98" r="125.17" gradientTransform="translate(-40.98 6.87) scale(1.34 0.5)" gradientUnits="userSpaceOnUse"><stop offset="0" stop-color="#059dd9" stop-opacity="0"/><stop offset="0.22" stop-color="#1593c7" stop-opacity="0.17"/><stop offset="0.66" stop-color="#407999" stop-opacity="0.62"/><stop offset="1" stop-color="#636472"/></radialGradient><radialGradient id="radial-gradient" cx="209.16" cy="40.2" r="29.51" gradientTransform="translate(14.2 -45.57) rotate(12.87)" gradientUnits="userSpaceOnUse"><stop offset="0.58" stop-color="#7c8998"/><stop offset="0.64" stop-color="#808d9b" stop-opacity="0.97"/><stop offset="0.71" stop-color="#8c97a4" stop-opacity="0.88"/><stop offset="0.78" stop-color="#a0a9b4" stop-opacity="0.73"/><stop offset="0.86" stop-color="#bbc2ca" stop-opacity="0.52"/><stop offset="0.94" stop-color="#dee1e5" stop-opacity="0.25"/><stop offset="1" stop-color="#fff" stop-opacity="0"/></radialGradient><linearGradient id="Degradado_sin_nombre_14" x1="197.59" y1="51.91" x2="219.44" y2="14.07" gradientUnits="userSpaceOnUse"><stop offset="0" stop-color="#059dd9"/><stop offset="1" stop-color="#059dd9"/></linearGradient><radialGradient id="Degradado_sin_nombre_15" cx="208.81" cy="39.25" r="42.75" gradientUnits="userSpaceOnUse"><stop offset="0" stop-color="#2d2e83" stop-opacity="0"/><stop offset="0.08" stop-color="#29388b" stop-opacity="0.09"/><stop offset="0.26" stop-color="#20539f" stop-opacity="0.33"/><stop offset="0.5" stop-color="#117dc0" stop-opacity="0.71"/><stop offset="0.68" stop-color="#059dd9"/></radialGradient></defs><title>Archivo svg</title><g class="cls-1"><g id="Capa_1" data-name="Capa 1"><rect class="cls-2" x="1.34" y="0.99" width="248.25" height="67.3" rx="27.78"/><rect class="cls-3" x="5.24" y="5.8" width="238.89" height="57.34" rx="26.01"/><circle class="cls-4" cx="209.16" cy="40.2" r="29.51" transform="translate(-3.7 47.58) rotate(-12.87)"/><path class="cls-5" d="M186.69,33.86a21.84,21.84,0,1,1,22.69,21A21.85,21.85,0,0,1,186.69,33.86Z"/><path class="cls-6" d="M191.78,33.66a16.75,16.75,0,1,1,17.4,16.07A16.75,16.75,0,0,1,191.78,33.66Z"/><path class="cls-7" d="M38,41.19a4.34,4.34,0,0,0,2.2-.5,3.83,3.83,0,0,0,1.38-1.3,5.65,5.65,0,0,0,.71-1.84,10.41,10.41,0,0,0,.21-2.08V28.91h.94v6.56a10.7,10.7,0,0,1-.28,2.5,6,6,0,0,1-.93,2.11,4.52,4.52,0,0,1-1.68,1.44,6.23,6.23,0,0,1-5.14,0A4.76,4.76,0,0,1,33.74,40a6.24,6.24,0,0,1-.9-2.11,11.38,11.38,0,0,1-.26-2.43V28.91h.93v6.56a9.9,9.9,0,0,0,.22,2.12,5.28,5.28,0,0,0,.73,1.83,3.89,3.89,0,0,0,1.39,1.28A4.33,4.33,0,0,0,38,41.19Z"/><path class="cls-7" d="M49.79,42.15a6.3,6.3,0,0,1-2.12-.37,5,5,0,0,1-1.76-1.1l.46-.63a5.12,5.12,0,0,0,1.6,1,4.83,4.83,0,0,0,1.82.33,3.49,3.49,0,0,0,2-.52,1.67,1.67,0,0,0,.76-1.46,1.35,1.35,0,0,0-.19-.75,1.54,1.54,0,0,0-.58-.51,4.92,4.92,0,0,0-1-.38c-.38-.11-.82-.23-1.32-.35s-1-.24-1.41-.37a3.89,3.89,0,0,1-1-.44,1.71,1.71,0,0,1-.58-.62,2,2,0,0,1-.19-.94,2.71,2.71,0,0,1,.27-1.25,2.42,2.42,0,0,1,.77-.88,3.41,3.41,0,0,1,1.12-.53,5.31,5.31,0,0,1,1.35-.17,5,5,0,0,1,2,.37,3.66,3.66,0,0,1,1.34,1l-.52.5a2.81,2.81,0,0,0-1.24-.83A4.6,4.6,0,0,0,49.81,33a4.67,4.67,0,0,0-1,.11,2.48,2.48,0,0,0-.81.35,1.75,1.75,0,0,0-.56.62,1.92,1.92,0,0,0-.2.89,1.46,1.46,0,0,0,.14.68,1.16,1.16,0,0,0,.44.44,3.22,3.22,0,0,0,.78.32c.32.1.7.2,1.14.31.6.14,1.14.28,1.6.42a4.24,4.24,0,0,1,1.17.5,2.27,2.27,0,0,1,.72.69,2,2,0,0,1,.24,1,2.42,2.42,0,0,1-1,2.05A4.3,4.3,0,0,1,49.79,42.15Z"/><path class="cls-7" d="M59.13,42.15q-3.06,0-3.06-4.23V32.4H57v5.39c0,2.35.81,3.53,2.41,3.53a3.37,3.37,0,0,0,1.18-.21,4.32,4.32,0,0,0,1.07-.59,4,4,0,0,0,.87-.91,4.86,4.86,0,0,0,.6-1.18v-6H64v8.28c0,.3.12.46.38.46V42a.47.47,0,0,1-.16,0h-.11a1,1,0,0,1-.66-.23.74.74,0,0,1-.28-.61V39.7a4.63,4.63,0,0,1-4.08,2.45Z"/><path class="cls-7" d="M69.88,42.15a3.24,3.24,0,0,1-2.23-.86,2.65,2.65,0,0,1-.67-.94,2.83,2.83,0,0,1-.24-1.16A2.3,2.3,0,0,1,67,38.05a2.77,2.77,0,0,1,.82-.89,3.86,3.86,0,0,1,1.26-.59,5.88,5.88,0,0,1,1.62-.21,9.09,9.09,0,0,1,1.55.13,8.47,8.47,0,0,1,1.41.38v-.94a3,3,0,0,0-.77-2.16,2.81,2.81,0,0,0-2.1-.8,4.15,4.15,0,0,0-1.48.3,7.21,7.21,0,0,0-1.59.84l-.35-.62a6.23,6.23,0,0,1,3.49-1.25,3.67,3.67,0,0,1,2.73,1,3.77,3.77,0,0,1,1,2.77v4.67c0,.3.13.46.4.46V42a1.08,1.08,0,0,1-.19,0h-.17a.72.72,0,0,1-.59-.25,1,1,0,0,1-.26-.6v-.79a4.34,4.34,0,0,1-1.69,1.33A5.53,5.53,0,0,1,69.88,42.15Zm.19-.74a4.71,4.71,0,0,0,2-.4,3.4,3.4,0,0,0,1.37-1.07,1.26,1.26,0,0,0,.29-.73v-1.7a7,7,0,0,0-1.38-.38A8,8,0,0,0,70.82,37a4.77,4.77,0,0,0-1.3.16,3.27,3.27,0,0,0-1,.43,2,2,0,0,0-.65.67,1.71,1.71,0,0,0-.23.87,2.11,2.11,0,0,0,.19.9,2,2,0,0,0,.51.73,2.56,2.56,0,0,0,.78.48A2.78,2.78,0,0,0,70.07,41.41Z"/><path class="cls-7" d="M82.5,33.23A3.74,3.74,0,0,0,78.89,36v6H78V32.4h.89v2.36a4.49,4.49,0,0,1,1.31-1.65,3.48,3.48,0,0,1,1.76-.73h.57Z"/><path class="cls-7" d="M84.81,30.23V28.54h.92v1.69Zm0,11.73V32.4h.92V42Z"/><path class="cls-7" d="M93.2,42.15a4.3,4.3,0,0,1-1.87-.4,4.64,4.64,0,0,1-1.48-1.07,5.12,5.12,0,0,1-1-1.58,5.43,5.43,0,0,1,0-3.81,5,5,0,0,1,1-1.58,4.56,4.56,0,0,1,1.48-1.08,4.38,4.38,0,0,1,1.85-.39,4.29,4.29,0,0,1,1.83.39,4.67,4.67,0,0,1,1.48,1.08,4.89,4.89,0,0,1,1,1.58,5.16,5.16,0,0,1-1,5.39A4.53,4.53,0,0,1,95,41.75,4.23,4.23,0,0,1,93.2,42.15Zm-3.75-4.91a4.23,4.23,0,0,0,.29,1.59,4.13,4.13,0,0,0,.8,1.29,3.84,3.84,0,0,0,1.19.88,3.45,3.45,0,0,0,2.9,0,3.83,3.83,0,0,0,1.19-.89,4.05,4.05,0,0,0,.81-1.32,4.42,4.42,0,0,0,0-3.2,4,4,0,0,0-.81-1.3,3.79,3.79,0,0,0-1.18-.89,3.12,3.12,0,0,0-1.44-.34,3.2,3.2,0,0,0-1.46.34,3.71,3.71,0,0,0-1.18.9,4.43,4.43,0,0,0-1.11,2.94Z"/><path class="cls-7" d="M108.25,42.15a3.87,3.87,0,0,1-1.33-.23,3.25,3.25,0,0,1-1.06-.65,3.06,3.06,0,0,1-.69-1,2.76,2.76,0,0,1-.26-1.22,2.84,2.84,0,0,1,.3-1.31,3,3,0,0,1,.86-1,4.19,4.19,0,0,1,1.3-.66,5.48,5.48,0,0,1,1.67-.24,6.48,6.48,0,0,1,1.18.1,4.13,4.13,0,0,1,1,.3v-.44c0-1.11-.64-1.67-1.93-1.67a4.2,4.2,0,0,0-1.5.27,6.74,6.74,0,0,0-1.51.8l-.86-1.84a7.3,7.3,0,0,1,4.17-1.25,5,5,0,0,1,3.38,1,3.74,3.74,0,0,1,1.2,3v2.48a1.06,1.06,0,0,0,.13.62.68.68,0,0,0,.49.21V42a5.41,5.41,0,0,1-.7.12l-.57,0a2.07,2.07,0,0,1-1.25-.32,1.43,1.43,0,0,1-.53-.91l-.06-.44a4.53,4.53,0,0,1-1.53,1.27A4.26,4.26,0,0,1,108.25,42.15Zm.87-2.12a2.68,2.68,0,0,0,.93-.16,2.14,2.14,0,0,0,.74-.44.92.92,0,0,0,.42-.7v-.92a4,4,0,0,0-.83-.23,4.25,4.25,0,0,0-.84-.08,2.29,2.29,0,0,0-1.33.36,1.14,1.14,0,0,0-.53,1,1.09,1.09,0,0,0,.41.87A1.52,1.52,0,0,0,109.12,40Z"/><path class="cls-7" d="M116.29,37.13a5.39,5.39,0,0,1,.35-1.91,4.71,4.71,0,0,1,2.64-2.69,5.59,5.59,0,0,1,2.19-.4,5.27,5.27,0,0,1,2.82.7A4.6,4.6,0,0,1,126,34.68l-2.87.87a1.84,1.84,0,0,0-1.67-.92,2,2,0,0,0-1.54.68,2.6,2.6,0,0,0-.61,1.82,3.15,3.15,0,0,0,.16,1,2.33,2.33,0,0,0,.46.8,2.14,2.14,0,0,0,.69.51,2,2,0,0,0,1.85-.08,1.8,1.8,0,0,0,.68-.69l2.87.88a4.41,4.41,0,0,1-1.7,1.84,5.92,5.92,0,0,1-5,.3,4.88,4.88,0,0,1-1.64-1.1,4.56,4.56,0,0,1-1-1.6A5.33,5.33,0,0,1,116.29,37.13Z"/><path class="cls-7" d="M134.16,41.45a12.39,12.39,0,0,1-1.39.48,6,6,0,0,1-1.57.22,3.9,3.9,0,0,1-1-.14,2.3,2.3,0,0,1-.85-.44,2,2,0,0,1-.58-.8,3.07,3.07,0,0,1-.21-1.2v-5h-1.24V32.31h1.24V29.24h2.94v3.07h2v2.23h-2v4a.79.79,0,0,0,.84.9,2.06,2.06,0,0,0,.68-.11,3.23,3.23,0,0,0,.61-.24Z"/><path class="cls-7" d="M135.87,31.21V28.54h2.94v2.67Zm0,10.75V32.31h2.94V42Z"/><path class="cls-7" d="M143.91,42l-3.42-9.65h3l2.11,7.3,2.14-7.3h2.74L147.11,42Z"/><path class="cls-7" d="M156.46,42.15a5.59,5.59,0,0,1-2.19-.41,4.71,4.71,0,0,1-1.63-1.09,4.51,4.51,0,0,1-1-1.6,5.51,5.51,0,0,1,0-3.81,4.6,4.6,0,0,1,1-1.6,4.88,4.88,0,0,1,1.63-1.1,6.05,6.05,0,0,1,4.38,0,4.94,4.94,0,0,1,1.62,1.1,4.78,4.78,0,0,1,1,1.6,5.43,5.43,0,0,1,0,3.81,4.66,4.66,0,0,1-1,1.6,4.81,4.81,0,0,1-1.63,1.09A5.64,5.64,0,0,1,156.46,42.15Zm-2.15-5a2.65,2.65,0,0,0,.61,1.83,2,2,0,0,0,1.54.69,2,2,0,0,0,.85-.19A2,2,0,0,0,158,39a2.49,2.49,0,0,0,.45-.8,3.12,3.12,0,0,0,.17-1,2.69,2.69,0,0,0-.61-1.83,2,2,0,0,0-1.53-.69,2,2,0,0,0-.85.18,1.93,1.93,0,0,0-.68.52,2.38,2.38,0,0,0-.45.8A3,3,0,0,0,154.31,37.15Z"/></g></g></svg>