<svg xmlns="http://www.w3.org/2000/svg" xmlns:xlink="http://www.w3.org/1999/xlink" viewBox="0 0 250.46 69.45"><defs><style>.cls-1{isolation:isolate;}.cls-2{fill:#2a2d32;}.cls-3{opacity:0.75;fill:url(#radial-gradient);}.cls-3,.cls-5,.cls-8{mix-blend-mode:multiply;}.cls-4{fill:#fff;}.cls-5{fill:url(#radial-gradient-2);}.cls-6{fill:#c5c4c5;}.cls-7{opacity:0.51;mix-blend-mode:soft-light;fill:url(#radial-gradient-3);}.cls-8{fill:url(#radial-gradient-4);}</style><radialGradient id="radial-gradient" cx="122.63" cy="59.04" r="125.17" gradientTransform="translate(-37.69 13.95) scale(1.34 0.5)" gradientUnits="userSpaceOnUse"><stop offset="0" stop-color="#fff" stop-opacity="0"/><stop offset="0.22" stop-color="#e4e4e6" stop-opacity="0.17"/><stop offset="0.66" stop-color="#9e9ea7" stop-opacity="0.62"/><stop offset="1" stop-color="#636472"/></radialGradient><radialGradient id="radial-gradient-2" cx="38.07" cy="41.73" r="26.61" gradientTransform="translate(40.66 -14.7) rotate(45)" gradientUnits="userSpaceOnUse"><stop offset="0.58" stop-color="#7c8998"/><stop offset="0.64" stop-color="#808d9b" stop-opacity="0.97"/><stop offset="0.71" stop-color="#8c97a4" stop-opacity="0.88"/><stop offset="0.78" stop-color="#a0a9b4" stop-opacity="0.73"/><stop offset="0.86" stop-color="#bbc2ca" stop-opacity="0.52"/><stop offset="0.94" stop-color="#dee1e5" stop-opacity="0.25"/><stop offset="1" stop-color="#fff" stop-opacity="0"/></radialGradient><radialGradient id="radial-gradient-3" cx="37.96" cy="39.13" r="30.11" gradientTransform="translate(0 -2.18) scale(1 1.06)" gradientUnits="userSpaceOnUse"><stop offset="0.72" stop-color="#fff" stop-opacity="0"/><stop offset="0.89" stop-color="#fff"/><stop offset="1" stop-color="#fff" stop-opacity="0"/></radialGradient><radialGradient id="radial-gradient-4" cx="37.95" cy="41.57" r="44.46" gradientUnits="userSpaceOnUse"><stop offset="0" stop-color="#fff" stop-opacity="0"/><stop offset="0.15" stop-color="#e4e4e6" stop-opacity="0.17"/><stop offset="0.45" stop-color="#9e9ea7" stop-opacity="0.62"/><stop offset="0.68" stop-color="#636472"/></radialGradient></defs><title>Archivo svg</title><g class="cls-1"><g id="Capa_1" data-name="Capa 1"><rect class="cls-2" x="0.79" y="1.58" width="248.25" height="67.3" rx="27.78"/><rect class="cls-3" x="4.69" y="6.38" width="238.89" height="57.34" rx="26.01"/><path class="cls-4" d="M84.18,42.15a4.45,4.45,0,0,0,2.2-.5,3.73,3.73,0,0,0,1.37-1.3,5.53,5.53,0,0,0,.72-1.84,10.41,10.41,0,0,0,.21-2.08V29.87h.94v6.56a10.76,10.76,0,0,1-.28,2.5A6.22,6.22,0,0,1,88.41,41a4.71,4.71,0,0,1-1.68,1.44,6.33,6.33,0,0,1-5.14,0A4.69,4.69,0,0,1,79.9,41a6.19,6.19,0,0,1-.9-2.1,10.9,10.9,0,0,1-.26-2.43V29.87h.93v6.56a10,10,0,0,0,.22,2.12,5.16,5.16,0,0,0,.73,1.82A3.83,3.83,0,0,0,82,41.66,4.3,4.3,0,0,0,84.18,42.15Z"/><path class="cls-4" d="M96,43.11a6.3,6.3,0,0,1-2.12-.37,5,5,0,0,1-1.76-1.11l.46-.62a5.31,5.31,0,0,0,1.6,1,4.83,4.83,0,0,0,1.82.33,3.56,3.56,0,0,0,2-.52,1.68,1.68,0,0,0,.76-1.47,1.34,1.34,0,0,0-.19-.74,1.65,1.65,0,0,0-.58-.52,5,5,0,0,0-1-.37c-.38-.11-.82-.23-1.32-.35s-1-.25-1.41-.37a3.73,3.73,0,0,1-1-.44A1.66,1.66,0,0,1,92.7,37a2,2,0,0,1-.19-.93,2.71,2.71,0,0,1,.27-1.25,2.54,2.54,0,0,1,.77-.89,3.61,3.61,0,0,1,1.12-.52A4.89,4.89,0,0,1,96,33.19a5,5,0,0,1,2,.38,3.44,3.44,0,0,1,1.34,1l-.52.49a2.93,2.93,0,0,0-1.24-.82A4.77,4.77,0,0,0,95,34a2.42,2.42,0,0,0-.82.35,1.74,1.74,0,0,0-.55.62,1.89,1.89,0,0,0-.2.89,1.46,1.46,0,0,0,.14.68A1.16,1.16,0,0,0,94,37a3.22,3.22,0,0,0,.78.32l1.14.3c.6.15,1.13.29,1.6.43a4.58,4.58,0,0,1,1.17.49,2.3,2.3,0,0,1,.72.7,2,2,0,0,1,.24,1,2.44,2.44,0,0,1-1,2.05A4.3,4.3,0,0,1,96,43.11Z"/><path class="cls-4" d="M105.29,43.11q-3.06,0-3.06-4.23V33.36h.92v5.39c0,2.35.81,3.53,2.41,3.53a3.37,3.37,0,0,0,1.18-.21,4.1,4.1,0,0,0,1.06-.59,4,4,0,0,0,.88-.91,4.5,4.5,0,0,0,.59-1.18v-6h.92v8.27c0,.31.13.46.39.46v.83l-.16,0h-.11a1,1,0,0,1-.66-.23.75.75,0,0,1-.28-.62V40.66a4.63,4.63,0,0,1-4.08,2.45Z"/><path class="cls-4" d="M116,43.11a3.32,3.32,0,0,1-1.23-.23,3.54,3.54,0,0,1-1-.63,2.74,2.74,0,0,1-.67-.94,2.85,2.85,0,0,1-.24-1.17,2.36,2.36,0,0,1,.29-1.14,2.88,2.88,0,0,1,.82-.89,4.32,4.32,0,0,1,1.26-.59,5.88,5.88,0,0,1,1.62-.21,9.11,9.11,0,0,1,1.55.14,7.6,7.6,0,0,1,1.41.38v-.94a3,3,0,0,0-.77-2.16,2.81,2.81,0,0,0-2.1-.8,4.31,4.31,0,0,0-1.48.29,7.73,7.73,0,0,0-1.59.85l-.35-.63a6.31,6.31,0,0,1,3.49-1.25,3.64,3.64,0,0,1,2.72,1,3.71,3.71,0,0,1,1,2.76v4.67c0,.31.13.46.4.46v.83L121,43h-.18a.72.72,0,0,1-.58-.25,1,1,0,0,1-.26-.6v-.79a4.34,4.34,0,0,1-1.69,1.33A5.53,5.53,0,0,1,116,43.11Zm.19-.74a4.79,4.79,0,0,0,2-.4,3.34,3.34,0,0,0,1.37-1.07,1.22,1.22,0,0,0,.3-.74V38.47a7,7,0,0,0-1.38-.38A8.1,8.1,0,0,0,117,38a5.36,5.36,0,0,0-1.31.15,3.46,3.46,0,0,0-1,.44,1.89,1.89,0,0,0-.65.67,1.71,1.71,0,0,0-.23.87,2.26,2.26,0,0,0,.18.9,2.22,2.22,0,0,0,1.3,1.2A2.58,2.58,0,0,0,116.23,42.37Z"/><path class="cls-4" d="M128.65,34.19a3.85,3.85,0,0,0-2.25.76,3.81,3.81,0,0,0-1.35,2v6h-.92V33.36H125v2.35a4.67,4.67,0,0,1,1.32-1.64,3.36,3.36,0,0,1,1.76-.73l.33,0h.23Z"/><path class="cls-4" d="M131,31.19V29.5h.92v1.69Zm0,11.73V33.36h.92v9.56Z"/><path class="cls-4" d="M139.35,43.11a4.43,4.43,0,0,1-1.86-.4A4.52,4.52,0,0,1,136,41.63a5,5,0,0,1-1-1.58,5.24,5.24,0,0,1-.35-1.89,5.11,5.11,0,0,1,.36-1.91,5,5,0,0,1,1-1.58,4.42,4.42,0,0,1,1.48-1.08,4.38,4.38,0,0,1,1.84-.4,4.31,4.31,0,0,1,1.84.4,4.52,4.52,0,0,1,1.48,1.08,4.89,4.89,0,0,1,1,1.58,5.1,5.1,0,0,1,.35,1.91,5.06,5.06,0,0,1-1.34,3.47,4.49,4.49,0,0,1-3.33,1.48ZM135.6,38.2a4.24,4.24,0,0,0,.3,1.59,4.06,4.06,0,0,0,.8,1.29,3.8,3.8,0,0,0,1.18.88,3.46,3.46,0,0,0,1.46.32,3.41,3.41,0,0,0,1.45-.32,3.86,3.86,0,0,0,1.19-.9,4,4,0,0,0,.81-1.31,4.42,4.42,0,0,0,0-3.2,4,4,0,0,0-.81-1.31,4,4,0,0,0-1.18-.89,3.25,3.25,0,0,0-1.45-.33,3.31,3.31,0,0,0-1.45.33,3.71,3.71,0,0,0-1.18.9,4.4,4.4,0,0,0-.81,1.34A4.35,4.35,0,0,0,135.6,38.2Z"/><path class="cls-4" d="M151.67,32.17V29.5h3v2.67Zm0,10.75V33.27h3v9.65Z"/><path class="cls-4" d="M166.51,42.92h-2.94V37.5a2.16,2.16,0,0,0-.36-1.39,1.16,1.16,0,0,0-1-.43,1.57,1.57,0,0,0-.62.13,2.52,2.52,0,0,0-.61.35,3,3,0,0,0-.52.55,2.46,2.46,0,0,0-.36.68v5.53h-2.94V33.27h2.65v1.62a3.5,3.5,0,0,1,1.5-1.34,5.17,5.17,0,0,1,2.25-.47,3,3,0,0,1,1.5.34,2.53,2.53,0,0,1,.89.89,3.59,3.59,0,0,1,.41,1.18,7.79,7.79,0,0,1,.1,1.25Z"/><path class="cls-4" d="M171.77,43.11a3.83,3.83,0,0,1-1.33-.23,3.15,3.15,0,0,1-1.06-.65,3.09,3.09,0,0,1-.7-1,3,3,0,0,1-.26-1.23,2.71,2.71,0,0,1,.31-1.3,2.93,2.93,0,0,1,.85-1,4.24,4.24,0,0,1,1.31-.66,5.48,5.48,0,0,1,1.67-.24,6.48,6.48,0,0,1,1.18.1,4.13,4.13,0,0,1,1,.3v-.44c0-1.12-.64-1.67-1.93-1.67a4.48,4.48,0,0,0-1.51.26,7.68,7.68,0,0,0-1.51.8l-.86-1.84a8,8,0,0,1,2-.93,7.37,7.37,0,0,1,2.18-.32,5.09,5.09,0,0,1,3.39,1,3.8,3.8,0,0,1,1.19,3v2.48a1,1,0,0,0,.14.62.72.72,0,0,0,.49.21v2.48a5.41,5.41,0,0,1-.7.12l-.57,0a2.07,2.07,0,0,1-1.25-.32,1.49,1.49,0,0,1-.54-.91l-.05-.44a4.33,4.33,0,0,1-1.54,1.26A4.1,4.1,0,0,1,171.77,43.11Zm.86-2.12a2.47,2.47,0,0,0,.93-.17,2.13,2.13,0,0,0,.75-.44.91.91,0,0,0,.42-.69v-.92a5.36,5.36,0,0,0-1.67-.32,2.33,2.33,0,0,0-1.34.37,1.12,1.12,0,0,0-.52,1,1.09,1.09,0,0,0,.4.87A1.54,1.54,0,0,0,172.63,41Z"/><path class="cls-4" d="M179.81,38.09a5.34,5.34,0,0,1,.34-1.91,4.72,4.72,0,0,1,2.64-2.69,5.68,5.68,0,0,1,2.2-.41,5.26,5.26,0,0,1,2.81.71,4.53,4.53,0,0,1,1.71,1.85l-2.87.86a1.84,1.84,0,0,0-1.67-.92,2,2,0,0,0-1.53.69,2.61,2.61,0,0,0-.62,1.82,3,3,0,0,0,.17,1,2.24,2.24,0,0,0,.46.8,2,2,0,0,0,1.52.7,2,2,0,0,0,1-.26,1.67,1.67,0,0,0,.68-.69l2.87.88a4.28,4.28,0,0,1-1.7,1.84,5.33,5.33,0,0,1-2.84.72,5.4,5.4,0,0,1-2.18-.42,4.83,4.83,0,0,1-1.63-1.1,4.73,4.73,0,0,1-1-1.6A5.32,5.32,0,0,1,179.81,38.09Z"/><path class="cls-4" d="M197.68,42.41a11.26,11.26,0,0,1-1.39.47,5.68,5.68,0,0,1-1.57.23,3.84,3.84,0,0,1-1-.14,2.34,2.34,0,0,1-.86-.44,2.3,2.3,0,0,1-.58-.8,3.07,3.07,0,0,1-.21-1.2v-5H190.8V33.27H192V30.2H195v3.07h2v2.22h-2v4a.87.87,0,0,0,.24.69.89.89,0,0,0,.61.21,2.35,2.35,0,0,0,.68-.11,3.88,3.88,0,0,0,.61-.24Z"/><path class="cls-4" d="M199.39,32.17V29.5h2.94v2.67Zm0,10.75V33.27h2.94v9.65Z"/><path class="cls-4" d="M207.42,42.92,204,33.27h3l2.11,7.3,2.13-7.3H214l-3.4,9.65Z"/><path class="cls-4" d="M220,43.11a5.68,5.68,0,0,1-2.2-.41,4.91,4.91,0,0,1-1.63-1.09,4.75,4.75,0,0,1-1-1.6,5.51,5.51,0,0,1,0-3.81,4.66,4.66,0,0,1,1-1.6,4.93,4.93,0,0,1,1.63-1.1,5.5,5.5,0,0,1,2.2-.42,5.41,5.41,0,0,1,2.19.42,5,5,0,0,1,1.62,1.1,4.84,4.84,0,0,1,1,1.6,5.33,5.33,0,0,1,.35,1.9,5.57,5.57,0,0,1-.34,1.91,4.63,4.63,0,0,1-1,1.6,4.77,4.77,0,0,1-1.62,1.09A5.68,5.68,0,0,1,220,43.11Zm-2.15-5a2.69,2.69,0,0,0,.6,1.83,2.09,2.09,0,0,0,2.4.51,2.09,2.09,0,0,0,.67-.52,2.38,2.38,0,0,0,.45-.8,3,3,0,0,0,.16-1,2.69,2.69,0,0,0-.6-1.83,2,2,0,0,0-1.53-.69,2.08,2.08,0,0,0-.86.19,2,2,0,0,0-.68.51,2.49,2.49,0,0,0-.45.8A3.11,3.11,0,0,0,217.83,38.1Z"/><circle class="cls-5" cx="38.07" cy="41.73" r="26.61" transform="translate(-18.35 39.14) rotate(-45)"/><path class="cls-6" d="M15,36a22.72,22.72,0,1,1,23.6,21.79A22.71,22.71,0,0,1,15,36Z"/><path class="cls-7" d="M15,36a22.72,22.72,0,1,1,23.6,21.79A22.71,22.71,0,0,1,15,36Z"/><path class="cls-8" d="M20.24,35.76a17.42,17.42,0,1,1,18.1,16.71A17.42,17.42,0,0,1,20.24,35.76Z"/></g></g></svg>