<svg xmlns="http://www.w3.org/2000/svg" xmlns:xlink="http://www.w3.org/1999/xlink" viewBox="0 0 185.75 56.5"><defs><style>.cls-1{isolation:isolate;}.cls-2{fill:#2a2d32;}.cls-3{opacity:0.75;mix-blend-mode:multiply;fill:url(#radial-gradient);}.cls-4{fill:#fff;}</style><radialGradient id="radial-gradient" cx="59.99" cy="65.14" r="102.07" gradientTransform="translate(21.16 2.75) scale(1.22 0.5)" gradientUnits="userSpaceOnUse"><stop offset="0" stop-color="#fff" stop-opacity="0"/><stop offset="0.22" stop-color="#e4e4e6" stop-opacity="0.17"/><stop offset="0.66" stop-color="#9e9ea7" stop-opacity="0.62"/><stop offset="1" stop-color="#636472"/></radialGradient></defs><title>Archivo svg</title><g class="cls-1"><g id="Capa_1" data-name="Capa 1"><rect class="cls-2" x="0.86" y="1.19" width="184.54" height="54.88" rx="27.44"/><rect class="cls-3" x="3.76" y="5.11" width="177.58" height="46.76" rx="23.38"/><path class="cls-4" d="M37.37,28.88a7.49,7.49,0,0,1,.49-2.66,7.18,7.18,0,0,1,1.41-2.34,7.27,7.27,0,0,1,2.27-1.67,7.08,7.08,0,0,1,3.05-.64,6.69,6.69,0,0,1,3.5.89,5.64,5.64,0,0,1,2.19,2.31L48.1,26.28a3.87,3.87,0,0,0-.71-1.05,3.67,3.67,0,0,0-.88-.67,4.53,4.53,0,0,0-1-.36,5.11,5.11,0,0,0-1-.11,3.83,3.83,0,0,0-1.87.43,4.13,4.13,0,0,0-1.32,1.13,4.93,4.93,0,0,0-.79,1.57A5.84,5.84,0,0,0,40.26,29a5.54,5.54,0,0,0,.31,1.86,4.94,4.94,0,0,0,.87,1.58,4.44,4.44,0,0,0,1.37,1.1,3.75,3.75,0,0,0,1.74.41,4.21,4.21,0,0,0,1-.13,3.71,3.71,0,0,0,1-.39,4.15,4.15,0,0,0,.9-.69,3.32,3.32,0,0,0,.66-1L50.49,33a4.43,4.43,0,0,1-1,1.45A6.3,6.3,0,0,1,48,35.54a7.28,7.28,0,0,1-1.74.66,7.65,7.65,0,0,1-1.81.22,6.25,6.25,0,0,1-2.87-.66A7.45,7.45,0,0,1,39.36,34a8.1,8.1,0,0,1-1.46-2.41A7.55,7.55,0,0,1,37.37,28.88Z"/><path class="cls-4" d="M56.37,21.66h2.51L64.45,36.3H61.52l-1.36-3.65H55.05L53.71,36.3H50.78Zm3.28,9-2-5.76-2.1,5.76Z"/><path class="cls-4" d="M68.91,26.92V36.3H66.06V21.66h2.21l7.63,9.61V21.68h2.84V36.3H76.43Z"/><path class="cls-4" d="M80.91,28.88a7.71,7.71,0,0,1,.48-2.66,7.38,7.38,0,0,1,1.42-2.34,7.27,7.27,0,0,1,2.27-1.67,7.08,7.08,0,0,1,3-.64,6.66,6.66,0,0,1,3.49.89,5.61,5.61,0,0,1,2.2,2.31l-2.19,1.51a3.58,3.58,0,0,0-1.58-1.72,4.53,4.53,0,0,0-1-.36,5.21,5.21,0,0,0-1-.11,3.81,3.81,0,0,0-1.86.43,4.13,4.13,0,0,0-1.32,1.13,5,5,0,0,0-.8,1.57A6.17,6.17,0,0,0,83.8,29a5.54,5.54,0,0,0,.31,1.86A4.76,4.76,0,0,0,85,32.4a4.4,4.4,0,0,0,1.36,1.1,3.79,3.79,0,0,0,1.75.41,4.21,4.21,0,0,0,1-.13,4,4,0,0,0,1-.39,4.15,4.15,0,0,0,.9-.69,3.32,3.32,0,0,0,.66-1L94,33a4.43,4.43,0,0,1-1,1.45,6.75,6.75,0,0,1-1.47,1.07,7.28,7.28,0,0,1-1.74.66,7.73,7.73,0,0,1-1.82.22,6.21,6.21,0,0,1-2.86-.66A7.32,7.32,0,0,1,82.9,34a8.12,8.12,0,0,1-1.47-2.41A7.54,7.54,0,0,1,80.91,28.88Z"/><path class="cls-4" d="M106.11,33.81V36.3H95.94V21.66h10v2.49H98.79v3.53H105V30H98.79v3.82Z"/><path class="cls-4" d="M108.34,36.3V21.66h2.84V33.81h7.47V36.3Z"/><path class="cls-4" d="M124.55,21.66h2.52l5.57,14.64h-2.93l-1.36-3.65h-5.12l-1.34,3.65H119Zm3.28,9-2-5.76-2.11,5.76Z"/><path class="cls-4" d="M134.24,36.3V21.66h6.48a4.23,4.23,0,0,1,1.87.42,4.76,4.76,0,0,1,1.47,1.11,5.29,5.29,0,0,1,1,1.57,4.8,4.8,0,0,1,.35,1.76,4.89,4.89,0,0,1-.71,2.59,4.08,4.08,0,0,1-1.93,1.68l3.34,5.51h-3.19l-3-4.91h-2.8V36.3Zm2.85-7.4h3.57a1.56,1.56,0,0,0,.73-.19,1.88,1.88,0,0,0,.59-.5,2.86,2.86,0,0,0,.39-.76,2.83,2.83,0,0,0,.14-.93,2.58,2.58,0,0,0-.16-.94,2.7,2.7,0,0,0-.44-.76,2,2,0,0,0-.64-.49,1.68,1.68,0,0,0-.74-.18h-3.44Z"/></g></g></svg>