<svg id="Capa_1" data-name="Capa 1" xmlns="http://www.w3.org/2000/svg" xmlns:xlink="http://www.w3.org/1999/xlink" viewBox="0 0 201.7 250.92"><defs><style>.cls-1{fill:url(#linear-gradient);}.cls-2{fill:url(#linear-gradient-2);}.cls-3{fill:url(#linear-gradient-3);}.cls-4{fill:#1d1d1b;}.cls-5{fill:#059dd9;}.cls-6{fill:url(#Degradado_sin_nombre_7);}.cls-7{fill:#fff;}.cls-8{fill:#010101;}</style><linearGradient id="linear-gradient" x1="1.1" y1="215.63" x2="200.76" y2="215.63" gradientUnits="userSpaceOnUse"><stop offset="0" stop-color="#525050"/><stop offset="0.54" stop-color="#9c9b9b"/><stop offset="0.79" stop-color="#d3d3d3"/><stop offset="1" stop-color="#d3d3d3"/></linearGradient><linearGradient id="linear-gradient-2" x1="0.75" y1="177.53" x2="201.1" y2="177.53" gradientUnits="userSpaceOnUse"><stop offset="0.08" stop-color="#525050"/><stop offset="0.86" stop-color="#cfcece"/></linearGradient><linearGradient id="linear-gradient-3" x1="12.15" y1="163.48" x2="189.7" y2="163.48" gradientUnits="userSpaceOnUse"><stop offset="0" stop-color="#6e6e6d"/><stop offset="1" stop-color="#bcbcbb"/></linearGradient><linearGradient id="Degradado_sin_nombre_7" x1="30.71" y1="141.17" x2="171.14" y2="141.17" gradientUnits="userSpaceOnUse"><stop offset="0" stop-color="#8fb5e1"/><stop offset="0.63" stop-color="#8fb5e1"/><stop offset="1" stop-color="#8fb5e1"/></linearGradient></defs><title>Archivo svg</title><path class="cls-1" d="M1.14,183.38s-.72,13.7,3.94,22.24,17.06,26.63,49.65,37,71.37,8.53,97.75-2.33,39.57-27.41,39.57-27.41,5.43-6.21,7-10.87,1.73-20.2,1.73-20.2Z"/><ellipse class="cls-2" cx="100.93" cy="177.53" rx="100.18" ry="60.07"/><ellipse class="cls-3" cx="100.93" cy="163.48" rx="88.77" ry="49.81"/><ellipse class="cls-4" cx="100.93" cy="169.52" rx="75.6" ry="36.59"/><path class="cls-5" d="M173.8,164.2l.19-13.41s0-9-3.88-14H139.32a135.11,135.11,0,0,0-38.11-5.2,135.18,135.18,0,0,0-38.12,5.2H30.2s-2.58,4.13-2.32,14.74c.15,6.17.38,11.28.56,14.48,0,.24,0,.48,0,.72a18.36,18.36,0,0,0,.22,2.77v.13h0c3,18.05,34.36,32.24,72.54,32.24,40.2,0,72.79-15.73,72.79-35.14A17,17,0,0,0,173.8,164.2Z"/><ellipse class="cls-6" cx="100.93" cy="141.17" rx="70.21" ry="35.14"/><ellipse class="cls-5" cx="100.93" cy="138.6" rx="64.5" ry="32.28"/><path class="cls-7" d="M27,22.82v-21H36a6,6,0,0,1,2.68.6A7,7,0,0,1,40.76,4a7.44,7.44,0,0,1,1.39,2.25,6.73,6.73,0,0,1,.51,2.54,7.2,7.2,0,0,1-.48,2.59,7.12,7.12,0,0,1-1.33,2.24,6.64,6.64,0,0,1-2.08,1.57,6,6,0,0,1-2.66.59h-5v7.05Zm4.09-10.63h4.74a2.34,2.34,0,0,0,1.88-.92,3.8,3.8,0,0,0,.76-2.49,4.06,4.06,0,0,0-.24-1.44,3.55,3.55,0,0,0-.62-1.08,2.53,2.53,0,0,0-.9-.67,2.65,2.65,0,0,0-1.06-.22H31.13Z"/><path class="cls-7" d="M60.85,19.36a4.62,4.62,0,0,0,2.44-.6,4.72,4.72,0,0,0,1.6-1.54A6.3,6.3,0,0,0,65.75,15,12.34,12.34,0,0,0,66,12.51V1.79h4.06V12.51a15.15,15.15,0,0,1-.52,4.06,9.29,9.29,0,0,1-1.63,3.32,7.71,7.71,0,0,1-2.86,2.25,10.93,10.93,0,0,1-8.45,0,8,8,0,0,1-2.86-2.32,9.19,9.19,0,0,1-1.59-3.33,16,16,0,0,1-.49-3.94V1.79h4.09V12.51A13.31,13.31,0,0,0,56,15.07a6.5,6.5,0,0,0,.86,2.18,4.85,4.85,0,0,0,1.59,1.53A4.69,4.69,0,0,0,60.85,19.36Z"/><path class="cls-7" d="M80.64,22.82v-21h4.09V19.24H95.45v3.58Z"/><path class="cls-7" d="M116.93,7.3a4.79,4.79,0,0,0-.75-.57A9.57,9.57,0,0,0,114.85,6a11.83,11.83,0,0,0-1.71-.58,7.3,7.3,0,0,0-1.86-.24,4.21,4.21,0,0,0-2.52.62,2.05,2.05,0,0,0-.83,1.75,1.75,1.75,0,0,0,.31,1.08,2.75,2.75,0,0,0,.9.76,7.56,7.56,0,0,0,1.5.59c.6.18,1.3.37,2.09.57,1,.27,2,.57,2.8.88a7.73,7.73,0,0,1,2.13,1.19,4.94,4.94,0,0,1,1.35,1.7,5.75,5.75,0,0,1,.47,2.45,6.17,6.17,0,0,1-.63,2.89,5.46,5.46,0,0,1-1.72,1.94,7.68,7.68,0,0,1-2.49,1.08,12.88,12.88,0,0,1-3,.34,16,16,0,0,1-4.68-.71,14.56,14.56,0,0,1-4.15-2l1.81-3.52a6.09,6.09,0,0,0,1,.69,14,14,0,0,0,3.75,1.59,9.39,9.39,0,0,0,2.37.3c2.25,0,3.38-.73,3.38-2.17a1.74,1.74,0,0,0-.39-1.15,3.08,3.08,0,0,0-1.09-.83,9.87,9.87,0,0,0-1.72-.65l-2.25-.66a17.82,17.82,0,0,1-2.63-.9,7,7,0,0,1-1.85-1.16,4.31,4.31,0,0,1-1.11-1.54,5.28,5.28,0,0,1-.37-2.09,6.61,6.61,0,0,1,.59-2.84A5.79,5.79,0,0,1,106,3.33a7.16,7.16,0,0,1,2.44-1.26,10,10,0,0,1,3-.43,11.7,11.7,0,0,1,4.09.69A15.52,15.52,0,0,1,118.74,4Z"/><path class="cls-7" d="M134.65,1.79h3.62l8,21h-4.21l-2-5.24h-7.34l-1.93,5.24h-4.21Zm4.71,12.91-2.9-8.26-3,8.26Z"/><path class="cls-7" d="M155,22.82v-21h9.3a6,6,0,0,1,2.68.6A7,7,0,0,1,169.14,4a7.44,7.44,0,0,1,1.39,2.25A6.73,6.73,0,0,1,171,8.78a7,7,0,0,1-1,3.72,5.84,5.84,0,0,1-2.77,2.41l4.8,7.91h-4.59l-4.3-7h-4v7.05Zm4.08-10.63h5.13a2.11,2.11,0,0,0,1.05-.27,2.69,2.69,0,0,0,.85-.73,3.67,3.67,0,0,0,.56-1.08,4.12,4.12,0,0,0,.21-1.33,3.79,3.79,0,0,0-.24-1.37A3.63,3.63,0,0,0,166,6.33a2.88,2.88,0,0,0-.92-.71,2.32,2.32,0,0,0-1.05-.25h-4.95Z"/><path class="cls-7" d="M92,68.84l.29-.11c.89,1.93,4.21,2,5.42,1.92,1,1.87,4.06,1.83,5,1.77v6.36a2.68,2.68,0,1,0,5.34,0V61.18c0,1.66,1,2.36,2.32,3.56,3.32,2.93,6.5-.88,3.82-3.56-6-6-7.92-11.27-7.92-16.92h-16a23.09,23.09,0,0,1-1.42,6.19,33.51,33.51,0,0,0-2.14,11.21v3.91C86.67,69.49,92,68.84,92,68.84Z"/><path class="cls-8" d="M87,68.5c1.54,1.36,4.06,1.3,4.85,1.24a3.62,3.62,0,0,0,.49.54c1.54,1.37,4.06,1.3,4.85,1.24a3.62,3.62,0,0,0,.49.54,6.44,6.44,0,0,0,4.1,1.27v5.45a3.57,3.57,0,1,0,7.12,0V64.49a6.21,6.21,0,0,0,.84.92c2.12,1.87,4.29,1.44,5.41.25a3.58,3.58,0,0,0-.37-5.11c-5.29-5.3-7.66-10.32-7.66-16.29v-.89H89.4l-.05.83A22.69,22.69,0,0,1,88,50.12a34.27,34.27,0,0,0-2.2,11.54v3.91A3.79,3.79,0,0,0,87,68.5Zm.54-6.84a32.69,32.69,0,0,1,2.08-10.88A24,24,0,0,0,91,45.16h14.34c.22,6.08,2.77,11.25,8.16,16.65a1.83,1.83,0,0,1,.33,2.63c-.52.56-1.61.8-2.93-.37a6.42,6.42,0,0,1-2-4.31h-1.78v19a1.79,1.79,0,1,1-3.56,0v-14H101.8v6.81a4.72,4.72,0,0,1-2.92-.83,2,2,0,0,1-.64-1.59V64.77H96.46v4.36a4.48,4.48,0,0,0,.05.64,4.75,4.75,0,0,1-3-.83,2,2,0,0,1-.64-1.59V63H91.12v4.36a4.48,4.48,0,0,0,0,.64,4.77,4.77,0,0,1-3-.83,2,2,0,0,1-.64-1.59Z"/></svg>